<svg xmlns="http://www.w3.org/2000/svg" viewBox="0 0 28 29" width="28" height="29">
	<style>
		tspan { white-space:pre }
		.shp0 { fill: #53575a } 
	</style>
	<path id="icon_bag" class="shp0" d="M20.44 11.39L19.32 11.39L19.32 6.48C19.32 3.53 17.16 1.12 14.51 1.12C11.85 1.12 9.69 3.53 9.69 6.48L9.69 11.39L8.57 11.39L8.57 6.48C8.57 2.92 11.23 0.01 14.51 0.01C17.78 0.01 20.44 2.92 20.44 6.48L20.44 11.39ZM28 28.01L0.01 28.01L4.21 7.35L25.02 7.35L28 28.01ZM1.38 26.9L26.7 26.9L24.05 8.46L5.13 8.46L1.38 26.9Z" />
</svg>