<svg xmlns="http://www.w3.org/2000/svg" viewBox="0 0 24 23" width="24" height="23">
	<style>
		tspan { white-space:pre }
		.shp0 { fill: #53575a } 
	</style>
	<g id="icons_social media">
		<path id="facebook" class="shp0" d="M18.82 21.89L13.2 21.89L13.2 14.09L16.26 14.09L16.51 12.54L13.2 12.54L13.2 9.84C13.2 8.99 13.89 8.3 14.75 8.3L16.69 8.3L16.69 6.75L14.17 6.75C12.78 6.75 11.64 7.87 11.64 9.26L11.64 12.54L9.32 12.54L9.32 14.09L11.64 14.09L11.64 21.89L4.78 21.89C2.96 21.89 1.49 20.42 1.49 18.61L1.49 4.62C1.49 2.81 2.96 1.34 4.78 1.34L18.82 1.34C20.64 1.34 22.12 2.81 22.12 4.62L22.12 18.61C22.12 20.42 20.64 21.89 18.82 21.89ZM13.97 21.12L18.82 21.12C20.21 21.12 21.34 19.99 21.34 18.61L21.34 4.62C21.34 3.24 20.21 2.11 18.82 2.11L4.78 2.11C3.39 2.11 2.26 3.24 2.26 4.62L2.26 18.61C2.26 19.99 3.39 21.12 4.78 21.12L10.87 21.12L10.87 14.86L8.54 14.86L8.54 11.77L10.87 11.77L10.87 9.26C10.87 7.45 12.35 5.98 14.17 5.98L17.46 5.98L17.46 9.06L14.75 9.06C14.32 9.06 13.97 9.41 13.97 9.84L13.97 11.77L17.43 11.77L16.91 14.86L13.97 14.86L13.97 21.12Z" />
	</g>
</svg>