<svg xmlns="http://www.w3.org/2000/svg" viewBox="0 0 24 25" width="24" height="25">
	<style>
		tspan { white-space:pre }
		.shp0 { fill: #53575a } 
	</style>
	<g id="icons_social media">
		<path id="instagram" class="shp0" d="M16.21 23L6.9 23C3.65 23 1.01 20.37 1.01 17.14L1.01 7.86C1.01 4.62 3.65 1.99 6.9 1.99L16.21 1.99C19.46 1.99 22.1 4.62 22.1 7.86L22.1 17.14C22.1 20.37 19.46 23 16.21 23ZM6.9 2.77C4.08 2.77 1.79 5.05 1.79 7.86L1.79 17.14C1.79 19.94 4.08 22.22 6.9 22.22L16.21 22.22C19.03 22.22 21.32 19.94 21.32 17.14L21.32 7.86C21.32 5.05 19.03 2.77 16.21 2.77L6.9 2.77ZM11.56 17.23C8.93 17.23 6.8 15.11 6.8 12.5C6.8 9.89 8.93 7.76 11.56 7.76C14.18 7.76 16.31 9.89 16.31 12.5C16.31 15.11 14.18 17.23 11.56 17.23ZM11.56 8.54C9.37 8.54 7.58 10.32 7.58 12.5C7.58 14.68 9.37 16.45 11.56 16.45C13.74 16.45 15.53 14.68 15.53 12.5C15.53 10.32 13.74 8.54 11.56 8.54ZM16.9 8.58C16.01 8.58 15.29 7.86 15.29 6.98C15.29 6.1 16.01 5.38 16.9 5.38C17.78 5.38 18.5 6.1 18.5 6.98C18.5 7.86 17.78 8.58 16.9 8.58ZM16.9 6C16.35 6 15.91 6.44 15.91 6.98C15.91 7.52 16.35 7.96 16.9 7.96C17.44 7.96 17.88 7.52 17.88 6.98C17.88 6.44 17.44 6 16.9 6Z" />
	</g>
</svg>