<svg xmlns="http://www.w3.org/2000/svg" viewBox="0 0 26 21" width="26" height="21">
	<style>
		tspan { white-space:pre }
		.shp0 { fill: #53575a } 
	</style>
	<g id="icons_social media">
		<path id="twitter" class="shp0" d="M10.49 19.33C9.6 19.33 8.68 19.26 7.74 19.11C6.08 18.85 4.4 18 3.93 17.74L1.99 16.69L4.09 16.01C5.2 15.64 5.97 15.39 6.76 15.08C5.91 14.49 5.27 13.64 4.92 12.61L4.51 11.36C4.45 11.28 4.4 11.2 4.34 11.12C3.79 10.29 3.49 9.26 3.56 8.37L3.65 7.09L3.79 7.15C3.74 6.98 3.7 6.81 3.66 6.64C3.44 5.52 3.63 4.33 4.2 3.3L4.87 2.07L5.78 3.14C7.39 5.06 9.41 6.25 11.79 6.68C11.72 5.11 12.48 3.7 13.87 2.85C15.73 1.72 18.11 1.87 19.74 3.21C20.52 2.97 22.48 2.26 22.5 2.25L23.22 1.99L22.39 4.35L24 4.27L23.56 4.88L23.26 4.67L23.53 4.91C23.34 5.17 22.08 6.88 21.61 7.5C21.41 7.77 21.31 8.12 21.33 8.49C21.51 11.97 20.47 14.81 18.34 16.71C16.42 18.42 13.65 19.33 10.49 19.33ZM3.8 16.86L4.28 17.11C4.72 17.35 6.3 18.16 7.85 18.4C11.91 19.03 15.56 18.22 17.85 16.18C19.82 14.42 20.77 11.78 20.6 8.53C20.58 7.99 20.73 7.47 21.03 7.07C21.35 6.64 22.06 5.69 22.53 5.06L22.3 5.07C22.01 5.08 21.98 5.08 21.9 5.09L21.34 5.14L22.03 3.18C21.28 3.45 20.15 3.85 19.75 3.95L19.56 4L19.41 3.87C18.04 2.65 15.87 2.48 14.25 3.46C12.95 4.25 12.34 5.56 12.55 7.05L12.62 7.53L12.15 7.46C9.38 7.08 7.05 5.78 5.22 3.6L5 3.34L4.83 3.64C4.34 4.53 4.18 5.55 4.37 6.5C4.45 6.89 4.59 7.27 4.78 7.62L5.23 8.47L4.3 8.11L4.28 8.42C4.23 9.16 4.48 10.02 4.95 10.73C5.1 10.96 5.28 11.17 5.47 11.37L6.24 12.14L5.49 12.03L5.61 12.38C5.97 13.47 6.73 14.34 7.73 14.82L8.45 15.16L7.72 15.47C6.62 15.93 5.76 16.22 4.31 16.69L3.8 16.86Z" />
	</g>
</svg>